PathFileType	4	(X/Y/Z)	Patient4_TMGait_0pt7_01_right_28.trc.trc
DataRate	CameraRate	NumFrames	NumMarkers	Units	OrigDataRate	OrigDataStartFrame	OrigNumFrames
85.889570552147	85.889570552147	5	33	mm	85.889570552147	18	       141
Frame#	Time	Sacral			L.Shoulder			Chest			R.Shoulder			Neck			R.ASIS			L.ASIS			R.Thigh.Superior			R.Thigh.Lateral			R.Thigh.Inferior			R.Patella			L.Thigh.Superior			L.Thigh.Lateral			L.Thigh.Inferior			L.Patella			L.Shank.Superior			L.Shank.Lateral			L.Shank.Inferior			R.Shank.Superior			R.Shank.Lateral			R.Shank.Inferior			R.Heel			R.Midfoot.Superior			R.Midfoot.Lateral			R.Toe			L.Heel			L.Midfoot.Lateral			L.Midfoot.Superior			L.Toe			L.Elbow			L.Wrist			R.Elbow			R.Wrist			
		X1	Y1	Z1	X2	Y2	Z2	X3	Y3	Z3	X4	Y4	Z4	X5	Y5	Z5	X6	Y6	Z6	X7	Y7	Z7	X8	Y8	Z8	X9	Y9	Z9	X10	Y10	Z10	X11	Y11	Z11	X12	Y12	Z12	X13	Y13	Z13	X14	Y14	Z14	X15	Y15	Z15	X16	Y16	Z16	X17	Y17	Z17	X18	Y18	Z18	X19	Y19	Z19	X20	Y20	Z20	X21	Y21	Z21	X22	Y22	Z22	X23	Y23	Z23	X24	Y24	Z24	X25	Y25	Z25	X26	Y26	Z26	X27	Y27	Z27	X28	Y28	Z28	X29	Y29	Z29	X30	Y30	Z30	X31	Y31	Z31	X32	Y32	Z32	X33	Y33	Z33	

18	31.897928571429	731.775598415562	995.668052620771	443.551256547184	931.131499673175	1424.145161523755	272.162509088523	1018.033419879022	1353.280217826358	442.081019890572	919.173953468367	1432.902429935000	606.280199996669	922.814287359514	1485.010225437571	425.942712211075	949.750850170330	935.185700695727	579.111047421700	960.720072960766	957.777356039384	302.855287120226	1031.573138057104	769.359619558179	556.809410596364	992.429143373580	647.184447092752	634.775131259867	1086.533905068698	615.346828126160	558.273014446260	1124.852764460276	535.987553807569	577.455574677101	959.961137163998	731.026614591901	332.594620924033	847.296392001267	636.848998266469	261.595280415972	900.673301962412	543.427603716143	330.548443092906	884.751273311779	478.531574036513	339.543905649199	855.164417497975	412.015813451002	328.873687780233	760.345176943316	303.257853015613	273.742068439019	799.866771554260	190.835252829649	351.608571499382	1115.874490199018	446.276845561470	588.973365682795	1069.872416928336	330.216022743335	653.282244192862	1146.882316717000	248.601542040657	606.013123329212	1070.843237415823	54.605076357853	578.089268382206	1226.288649459803	140.187064169553	623.543299199869	1152.066560208862	59.075157672568	653.684550065216	1351.460984866899	113.147994445932	654.959142807513	664.416525210237	37.981260403865	391.731267420175	739.995546249545	34.538617166863	312.315893990288	822.014798544834	95.625020203735	341.583296537351	951.574274383852	45.078769951038	316.845139388342	945.410116106651	1091.567977565861	120.481615777868	1186.237474748385	1008.631736502656	152.962324646980	779.351623648554	1137.597313772314	756.992088440585	765.250996489815	885.650375302206	824.758646514772	
19	31.909571428571	733.409845884688	993.576381435463	445.561556577277	931.389547795892	1422.427311562325	274.091889972080	1018.367448792413	1352.048546170360	443.991540600051	918.797130014101	1431.717145556269	608.027919450533	922.742909015544	1483.304194123409	427.648045855979	951.482454062386	932.996213549461	581.120372524984	962.668282266810	956.330753003545	304.824743709045	1032.758064208464	766.377007642057	558.334181847362	992.091996905669	643.650044609695	634.823132787358	1086.303879164154	611.891393654986	558.806023160287	1123.254440607068	532.200501882959	577.419664748607	959.464951991845	728.899579878905	333.799459973185	845.422347853016	636.055718859279	262.757269643135	897.768935875021	541.880976512826	331.425858413539	881.067351683624	476.947575845789	340.346625872148	850.751668424065	410.818426164366	329.529738174298	754.580378892111	303.252921865160	274.239817144409	792.737120686088	190.185567499603	351.861082783341	1114.157852190298	442.132057868238	588.568075358812	1067.012924182027	325.682757709048	650.954305608190	1144.313242753792	244.415175722932	604.020964894200	1067.958026709699	51.342115614864	573.777376663606	1222.973036677662	135.973714982735	621.289647982488	1148.236124144670	55.366682314531	650.360142892772	1347.675159076075	108.420782261836	654.064001169847	656.229850838208	37.899007211033	391.699293827375	731.804129655876	34.471014430147	312.310969803811	813.881449100565	95.502685708087	341.652581784853	943.422500183330	44.800161774593	316.846597747166	947.761596656187	1090.334177127219	122.194231116800	1190.961417775891	1017.375285203203	157.078429122248	772.439766785298	1140.460724587063	758.247755846194	755.277008899753	888.577274629991	825.996343628273	
20	31.921214285714	735.180544429339	991.400777121714	447.866321811736	931.697414110731	1420.607844202409	276.151398122492	1018.788295019361	1350.758449332172	446.063399092867	918.484069367002	1430.491221231326	609.926575509843	922.731169156919	1481.541388262798	429.483380978792	953.466689190660	930.739222613908	583.271807145466	964.579957439130	954.808174964997	306.991027847313	1034.472316067531	763.474908296688	559.921041393620	992.053876307230	640.114653780034	634.618635188692	1086.598509814316	608.533900439758	559.350120453665	1122.037327943697	528.170411489064	577.264209592620	959.383955900863	726.746357988595	335.051145704015	844.012894563324	635.119981428564	264.184445728763	895.521256492112	540.227042604436	332.483613607905	878.051236036154	475.149009058269	341.407784108860	846.920501145627	409.403580443270	330.428685960687	749.224457396577	303.238405076839	274.937296753679	785.800309712610	189.417625966467	352.201196987580	1112.364096119440	437.684583464494	587.959048761109	1063.455605336549	321.125775155725	648.443430083766	1140.501777686355	239.771154122539	601.770661793283	1062.449488406897	48.482658846552	569.366762251617	1217.714743861881	130.890175727480	618.709723074181	1141.848602122672	51.542776013565	646.909370915720	1341.726867580228	101.786779495925	652.761782004289	648.040001659895	37.779852036821	391.642347233595	723.633767791184	34.367636238330	312.311595527482	805.782553043559	95.361080832897	341.738838605071	935.320870634066	44.446903468587	316.837628619453	949.871599865479	1088.829734611228	124.248004875292	1194.964461968430	1025.438707726497	161.305064179516	766.208539734285	1142.853885268452	759.156974335590	746.221139799123	891.002676547851	826.906414244412	
21	31.932857142857	737.061733091619	989.215955920424	450.442550309675	932.087582195656	1418.741150063140	278.338295985404	1019.320203974267	1349.441425632759	448.301764927188	918.282767820993	1429.255833511103	611.974679257831	922.820459599975	1479.779136411798	431.455937314098	955.672221423341	928.505040508163	585.546531755097	966.425480832374	953.260808787806	309.351613993737	1036.601997656478	760.659523580010	561.601531541678	992.217733266219	636.672675781771	634.276857899488	1087.270255966333	605.307960300675	559.940226047710	1121.114290494036	524.020464234175	577.019553687794	959.696579947632	724.607700355383	336.365392292363	843.043552587168	634.065769230460	265.890266212146	893.920780704214	538.487084396676	333.733225257545	875.717648213872	473.143276649005	342.717229268958	843.652908674873	407.795920159009	331.574788202194	744.260426426223	303.248751993712	275.851072447490	779.060451624762	188.567125106438	352.624899437022	1110.526429146363	433.109217957995	587.218300912817	1059.475418111893	316.680863901801	645.967083069837	1135.798902839608	234.884311819239	599.403841094144	1054.917745787422	46.072183085714	565.154594554445	1211.051022616592	125.266694125295	615.911286248274	1133.582242493022	47.804331961645	643.548488857781	1334.240074186371	93.781694392496	651.040086884047	639.841141940210	37.663916535952	391.554546930885	715.485625878803	34.240141895275	312.318733509184	797.732076219652	95.207564101359	341.831190993418	927.275653482013	44.022497434810	316.814150300824	951.717962292717	1087.093914507724	126.648074579726	1198.276843139653	1032.708978801606	165.607434197606	760.767428970966	1144.714835001382	759.768773693993	738.167705378248	892.876782937914	827.472767998161	
22	31.944500000000	739.015709867653	987.109792269859	453.252165358666	932.593710334374	1416.899035120429	280.645309010057	1019.985372959645	1348.144430297965	450.700382954467	918.241454967830	1428.052079286885	614.167250863463	923.055411849693	1478.087911302824	433.569279089371	958.049335491034	926.404136784577	587.926806978319	968.187384719000	951.749785678926	311.899321810101	1039.012073053254	757.974505986242	563.393859969194	992.522096201485	633.457537021988	633.941896943836	1088.164813087891	602.280868496487	560.601385260173	1120.406396829252	519.920637877319	576.740144450074	960.368120168585	722.540595132594	337.775562736684	842.491097192453	632.928522706542	267.881265882688	892.960421458047	536.697004889229	335.187851141685	874.091404129677	470.951790053443	344.250886532009	840.933422219636	406.037717266325	332.959283774625	739.675387994094	303.336300730579	276.987669630177	772.527511274745	187.690500787267	353.121599843195	1108.689983045197	428.615434451499	586.442983760332	1055.353220416437	312.515893798610	643.749416725318	1130.561040624574	230.013107702583	597.079272619411	1046.008659094143	44.153350717574	561.399946555364	1203.501418797189	119.498373229369	613.038031851134	1124.128262542813	44.367636826391	640.483183137833	1325.815677937610	85.071354057907	648.975108182419	631.632534385453	37.628011198188	391.429887679019	707.362098076898	34.118848455397	312.331527017872	789.753430245846	95.054425996908	341.913053178795	919.289830561034	43.534601098111	316.772625701507	953.266132055877	1085.184596728320	129.399334583958	1200.927989158396	1039.084521973131	169.955341612821	756.225691321813	1146.001669546915	760.153644005004	731.210148159757	894.158844751605	827.685208615515	
